<svg width="111" height="38" viewBox="0 0 111 38" fill="none" xmlns="http://www.w3.org/2000/svg">
<g clip-path="url(#clip0_1_353)">
<path d="M22.8328 15.4499C22.8328 7.28672 29.4972 0.64566 37.6868 0.64566C45.8765 0.64566 52.5408 7.28672 52.5408 15.4499V19.9173C52.5408 21.8098 51.0015 23.343 49.1037 23.343C47.2059 23.343 45.6666 21.8088 45.6666 19.9173V15.4499C45.6666 11.0646 42.0869 7.49688 37.6868 7.49688C33.2867 7.49688 29.707 11.0646 29.707 15.4499" fill="#1DD6B4"/>
<path d="M75.3746 22.55C75.3746 30.7133 68.7113 37.3543 60.5206 37.3543C52.33 37.3543 45.6666 30.7133 45.6666 22.55V19.851C45.6666 17.9586 47.2059 16.4254 49.1037 16.4254C51.0015 16.4254 52.5408 17.9596 52.5408 19.851V22.55C52.5408 26.9354 56.1205 30.5031 60.5206 30.5031C64.9207 30.5031 68.5004 26.9354 68.5004 22.55" fill="#F46D22"/>
<path d="M108.182 7.94459C107.661 7.94459 107.186 7.8185 106.758 7.5663C106.329 7.31411 105.987 6.97385 105.734 6.54653C105.481 6.1192 105.355 5.64884 105.355 5.13745C105.355 4.62607 105.481 4.1467 105.734 3.72238C105.987 3.29805 106.329 2.9598 106.758 2.7076C107.186 2.45541 107.661 2.32932 108.182 2.32932C108.571 2.32932 108.937 2.40237 109.278 2.54848C109.618 2.69459 109.918 2.89575 110.175 3.15194C110.432 3.40814 110.633 3.70536 110.78 4.04562C110.927 4.38588 111 4.74916 111 5.13745C111 5.64884 110.873 6.1192 110.62 6.54653C110.367 6.97485 110.028 7.31411 109.602 7.5663C109.177 7.8185 108.704 7.94459 108.182 7.94459ZM108.182 7.26508C108.579 7.26508 108.937 7.172 109.256 6.98486C109.575 6.79872 109.831 6.54252 110.026 6.21728C110.22 5.89203 110.317 5.53175 110.317 5.13745C110.317 4.74315 110.22 4.38488 110.026 4.06264C109.831 3.74139 109.575 3.4852 109.256 3.29505C108.937 3.10491 108.579 3.00983 108.182 3.00983C107.786 3.00983 107.415 3.10491 107.093 3.29505C106.77 3.4852 106.514 3.74139 106.323 4.06264C106.132 4.38488 106.037 4.74315 106.037 5.13745C106.037 5.53175 106.132 5.89003 106.323 6.21227C106.514 6.53452 106.772 6.78971 107.099 6.97986C107.425 7.17 107.787 7.26508 108.182 7.26508ZM107.06 6.60657V3.64532H108.303C108.611 3.64532 108.868 3.72538 109.073 3.8865C109.279 4.04762 109.381 4.28881 109.381 4.61105C109.381 4.82322 109.335 4.99835 109.244 5.13745C109.152 5.27656 109.022 5.38564 108.853 5.46671L109.524 6.60757H108.754L108.17 5.57679H107.763V6.60757H107.059L107.06 6.60657ZM107.764 4.97233H108.303C108.42 4.97233 108.512 4.9373 108.578 4.86825C108.644 4.7992 108.677 4.71313 108.677 4.61005C108.677 4.50697 108.644 4.42391 108.578 4.35786C108.512 4.29181 108.42 4.25879 108.303 4.25879H107.764V4.97133V4.97233Z" fill="white"/>
<path d="M16.3723 35.6707H12.3588C5.54377 35.6707 0 30.1445 0 23.3533V5.75593C0 3.86349 1.53932 2.33032 3.43712 2.33032C5.33492 2.33032 6.87424 3.86449 6.87424 5.75593V23.3533C6.87424 26.3676 9.33435 28.8185 12.3578 28.8185H16.3713C19.9339 28.8185 22.8328 25.9293 22.8328 22.3786V17.1676C22.8328 9.00441 29.4962 2.36335 37.6868 2.36335C45.8775 2.36335 52.5408 9.00441 52.5408 17.1676V21.635C52.5408 23.5275 51.0015 25.0606 49.1037 25.0606C47.2059 25.0606 45.6666 23.5265 45.6666 21.635V17.1676C45.6666 12.7823 42.0869 9.21457 37.6868 9.21457C33.2867 9.21457 29.707 12.7823 29.707 17.1676V22.3786C29.707 29.7072 23.7245 35.6697 16.3713 35.6697L16.3723 35.6707Z" fill="white"/>
<path d="M101.052 35.6707H87.1701C83.8013 35.6707 80.9315 33.6141 79.8591 30.4317C78.7867 27.2493 79.8289 23.8827 82.515 21.8562L97.3238 10.6827C97.6421 10.4425 97.7395 10.1293 97.612 9.75097C97.4845 9.37368 97.2174 9.18154 96.8177 9.18154H81.785C78.2505 9.18154 75.3756 12.0477 75.3756 15.5694V20.8654C75.3756 29.0287 68.7123 35.6697 60.5216 35.6697C52.331 35.6697 45.6676 29.0287 45.6676 20.8654V18.1664C45.6676 16.2739 47.2069 14.7408 49.1047 14.7408C51.0025 14.7408 52.5418 16.2749 52.5418 18.1664V20.8654C52.5418 25.2508 56.1215 28.8185 60.5216 28.8185C64.9217 28.8185 68.5014 25.2508 68.5014 20.8654V15.5694C68.5014 8.26884 74.4609 2.32932 81.786 2.32932H96.8187C100.188 2.32932 103.057 4.38588 104.13 7.56831C105.202 10.7507 104.16 14.1173 101.474 16.1438L86.665 27.3174C86.3467 27.5575 86.2493 27.8708 86.3768 28.2491C86.5044 28.6263 86.7715 28.8185 87.1711 28.8185H101.053C102.952 28.8185 104.49 30.3527 104.49 32.2441C104.49 34.1355 102.951 35.6697 101.053 35.6697L101.052 35.6707Z" fill="white"/>
</g>
<defs>
<clipPath id="clip0_1_353">
<rect width="111" height="36.7087" fill="white" transform="translate(0 0.64566)"/>
</clipPath>
</defs>
</svg>
